<svg width="28" height="28" viewBox="0 0 28 28" fill="none" xmlns="http://www.w3.org/2000/svg">
<path fill-rule="evenodd" clip-rule="evenodd" d="M22.708 19.5385C24.1696 14.0841 20.7088 8.45047 15.0234 6.92727C8.60299 5.20527 -0.509611 9.67687 1.51759 15.4127C2.18959 17.3097 3.48319 17.7535 5.92339 17.7885L6.07599 17.7913C7.36539 17.8067 7.72799 17.8907 7.83719 18.0671C8.01499 18.3583 8.01779 18.8217 7.81759 20.0971C7.72239 20.6991 7.69159 20.9091 7.65519 21.2381C7.43259 23.2415 7.77139 24.8039 9.08319 26.2179C13.1824 30.6321 21.0574 25.6957 22.708 19.5385ZM4.15799 14.4775C3.13739 11.5935 9.66839 8.38887 14.2982 9.62927C18.522 10.7619 21.0546 14.8849 20.0032 18.8119C18.83 23.1911 13.3084 26.6519 11.1356 24.3111C10.4636 23.5887 10.297 22.8159 10.4384 21.5461C10.4678 21.2745 10.4958 21.0869 10.584 20.5297C10.8906 18.5739 10.8864 17.6807 10.2228 16.6013C9.39119 15.2475 8.40279 15.0193 6.11099 14.9899L5.96259 14.9871C4.61299 14.9689 4.29239 14.8583 4.15659 14.4775H4.15799Z" fill="#2B3694"/>
<path d="M8.39999 14.0001C7.93587 14.0001 7.49075 13.8157 7.16256 13.4875C6.83437 13.1593 6.64999 12.7142 6.64999 12.2501C6.64999 11.7859 6.83437 11.3408 7.16256 11.0126C7.49075 10.6844 7.93587 10.5001 8.39999 10.5001C8.86412 10.5001 9.30924 10.6844 9.63743 11.0126C9.96562 11.3408 10.15 11.7859 10.15 12.2501C10.15 12.7142 9.96562 13.1593 9.63743 13.4875C9.30924 13.8157 8.86412 14.0001 8.39999 14.0001ZM13.65 14.0001C13.1859 14.0001 12.7407 13.8157 12.4126 13.4875C12.0844 13.1593 11.9 12.7142 11.9 12.2501C11.9 11.7859 12.0844 11.3408 12.4126 11.0126C12.7407 10.6844 13.1859 10.5001 13.65 10.5001C14.1141 10.5001 14.5592 10.6844 14.8874 11.0126C15.2156 11.3408 15.4 11.7859 15.4 12.2501C15.4 12.7142 15.2156 13.1593 14.8874 13.4875C14.5592 13.8157 14.1141 14.0001 13.65 14.0001ZM17.15 18.2001C16.6859 18.2001 16.2407 18.0157 15.9126 17.6875C15.5844 17.3593 15.4 16.9142 15.4 16.4501C15.4 15.9859 15.5844 15.5408 15.9126 15.2126C16.2407 14.8844 16.6859 14.7001 17.15 14.7001C17.6141 14.7001 18.0592 14.8844 18.3874 15.2126C18.7156 15.5408 18.9 15.9859 18.9 16.4501C18.9 16.9142 18.7156 17.3593 18.3874 17.6875C18.0592 18.0157 17.6141 18.2001 17.15 18.2001ZM15.05 23.1001C14.5859 23.1001 14.1407 22.9157 13.8126 22.5875C13.4844 22.2593 13.3 21.8142 13.3 21.3501C13.3 20.8859 13.4844 20.4408 13.8126 20.1126C14.1407 19.7844 14.5859 19.6001 15.05 19.6001C15.5141 19.6001 15.9592 19.7844 16.2874 20.1126C16.6156 20.4408 16.8 20.8859 16.8 21.3501C16.8 21.8142 16.6156 22.2593 16.2874 22.5875C15.9592 22.9157 15.5141 23.1001 15.05 23.1001ZM20.118 5.04705C20.284 4.95812 20.4662 4.90359 20.6538 4.88673C20.8414 4.86987 21.0304 4.89102 21.2096 4.94892C21.3888 5.00683 21.5545 5.10029 21.6967 5.22372C21.839 5.34714 21.9548 5.498 22.0374 5.66725L27.7676 17.4273C27.8633 17.6386 27.8749 17.8785 27.8 18.0981C27.7251 18.3178 27.5694 18.5006 27.3646 18.6096C27.1597 18.7185 26.921 18.7453 26.6971 18.6846C26.4732 18.6239 26.2808 18.4802 26.159 18.2827L19.5678 6.98465C19.473 6.82213 19.4121 6.64214 19.3886 6.45548C19.3651 6.26883 19.3795 6.07935 19.431 5.89841C19.4826 5.71747 19.5701 5.5488 19.6884 5.4025C19.8066 5.25621 19.9533 5.13531 20.1194 5.04705H20.118Z" fill="#2B3694"/>
<path fill-rule="evenodd" clip-rule="evenodd" d="M17.5518 4.87758C18.2336 6.15858 19.3802 6.51698 20.489 5.92758C21.5964 5.33958 21.9422 4.18738 21.2604 2.90638C20.482 1.43918 18.8132 0.10918 17.7072 0.69578C16.6012 1.28378 16.772 3.41038 17.5532 4.87758H17.5518ZM18.788 4.21958C18.5401 3.72179 18.3881 3.18179 18.34 2.62778C18.3192 2.39617 18.3276 2.16287 18.3652 1.93338L18.3904 1.94598C18.4604 1.97958 18.6774 2.08038 18.9546 2.30158C19.3774 2.63898 19.7974 3.13598 20.0242 3.56298C20.3448 4.16498 20.2538 4.46738 19.831 4.69278C19.411 4.91678 19.1086 4.82158 18.788 4.22098V4.21958Z" fill="#2B3694"/>
</svg>
