<svg width="28" height="28" viewBox="0 0 28 28" fill="none" xmlns="http://www.w3.org/2000/svg">
<path fill-rule="evenodd" clip-rule="evenodd" d="M4.19995 6.99995C4.19995 6.25734 4.49495 5.54515 5.02005 5.02005C5.54515 4.49495 6.25734 4.19995 6.99995 4.19995H21C21.7426 4.19995 22.4547 4.49495 22.9798 5.02005C23.505 5.54515 23.8 6.25734 23.8 6.99995V18.1999C23.8 18.9426 23.505 19.6547 22.9798 20.1798C22.4547 20.705 21.7426 21 21 21H17.892L18.0642 21.6845L19.1898 22.8101C19.3855 23.0059 19.5188 23.2554 19.5728 23.5269C19.6268 23.7984 19.599 24.0799 19.4931 24.3357C19.3872 24.5914 19.2078 24.8101 18.9776 24.9639C18.7474 25.1178 18.4768 25.1999 18.2 25.1999H9.79995C9.5231 25.1999 9.25248 25.1178 9.02231 24.9639C8.79214 24.8101 8.61274 24.5914 8.5068 24.3357C8.40086 24.0799 8.37314 23.7984 8.42713 23.5269C8.48113 23.2554 8.61442 23.0059 8.81015 22.8101L9.93575 21.6845L10.108 21H6.99995C6.25734 21 5.54515 20.705 5.02005 20.1798C4.49495 19.6547 4.19995 18.9426 4.19995 18.1999V6.99995ZM12.2794 16.7999H6.99995V6.99995H21V16.7999H12.2794Z" fill="#2B3694"/>
</svg>
