<svg width="24" height="24" viewBox="0 0 24 24" fill="none" xmlns="http://www.w3.org/2000/svg">
<path d="M21.9 11.0001C21.9 10.8901 21.84 10.7801 21.81 10.6701C21.7637 10.4761 21.7036 10.2856 21.63 10.1001C21.58 9.98012 21.51 9.86012 21.45 9.73012C21.39 9.60012 21.3 9.43012 21.21 9.29012C21.12 9.15012 21 9.08012 21 9.00012C21 8.92012 20.8 8.75012 20.69 8.63012C20.58 8.51012 20.48 8.43012 20.37 8.33012L20 8.00012L19.64 7.76012C19.4987 7.67363 19.3517 7.59679 19.2 7.53012L18.81 7.35012C18.6467 7.28962 18.4797 7.23952 18.31 7.20012C18.1756 7.16058 18.0386 7.13051 17.9 7.11012H17.72C17.3348 5.90938 16.5811 4.86052 15.5659 4.1125C14.5507 3.36448 13.3257 2.95533 12.0647 2.94315C10.8038 2.93097 9.57103 3.31639 8.54158 4.04466C7.51213 4.77293 6.73831 5.80704 6.33 7.00012H6.15C6.0114 7.02051 5.8744 7.05058 5.74 7.09012C5.57034 7.12952 5.40334 7.17962 5.24 7.24012L4.85 7.42012C4.69832 7.48679 4.55132 7.56363 4.41 7.65012L4.05 8.00012L3.68 8.31012C3.57 8.41012 3.46 8.50012 3.36 8.61012C3.26 8.72012 3.15 8.86012 3.05 8.98012C2.95 9.10012 2.87 9.21012 2.79 9.34012C2.71 9.47012 2.63 9.63012 2.55 9.78012C2.47 9.93012 2.42 10.0301 2.37 10.1501C2.29644 10.3356 2.23629 10.5261 2.19 10.7201C2.19 10.8301 2.12 10.9401 2.1 11.0501C2.03776 11.3631 2.00428 11.6811 2 12.0001C2.00469 12.3054 2.03479 12.6098 2.09 12.9101C2.09 13.0101 2.14 13.1001 2.16 13.2001C2.20943 13.3966 2.26952 13.5902 2.34 13.7801L2.46 14.0701C2.54803 14.263 2.64823 14.45 2.76 14.6301L2.9 14.8501C2.91439 14.8781 2.93111 14.9049 2.95 14.9301L3 15.0001C3.46574 15.6211 4.06965 16.1251 4.76393 16.4723C5.45821 16.8194 6.22377 17.0001 7 17.0001C7.00223 16.4705 7.21441 15.9635 7.59 15.5901C7.96335 15.2145 8.47042 15.0023 9 15.0001C9.35177 14.9968 9.6977 15.0902 10 15.2701V12.0001C10 11.4697 10.2107 10.961 10.5858 10.5859C10.9609 10.2108 11.4696 10.0001 12 10.0001C12.5304 10.0001 13.0391 10.2108 13.4142 10.5859C13.7893 10.961 14 11.4697 14 12.0001V15.3701C14.3038 15.1939 14.6487 15.1007 15 15.1001C15.5417 15.1052 16.0595 15.3245 16.44 15.7101C16.7767 16.0581 16.9757 16.5165 17 17.0001C17.7762 17.0001 18.5418 16.8194 19.2361 16.4723C19.9303 16.1251 20.5343 15.6211 21 15.0001L21.05 14.9501C21.0689 14.9249 21.0856 14.8981 21.1 14.8701L21.24 14.6501C21.3518 14.47 21.452 14.283 21.54 14.0901L21.66 13.8001C21.7305 13.6102 21.7906 13.4166 21.84 13.2201C21.84 13.1201 21.89 13.0301 21.91 12.9301C21.9663 12.6232 21.9964 12.3121 22 12.0001C21.9988 11.6643 21.9654 11.3295 21.9 11.0001Z" fill="white"/>
<path d="M14.3099 16.38L12.9999 17.64V12C12.9999 11.7348 12.8946 11.4804 12.707 11.2929C12.5195 11.1054 12.2652 11 11.9999 11C11.7347 11 11.4804 11.1054 11.2928 11.2929C11.1053 11.4804 10.9999 11.7348 10.9999 12V17.59L9.70994 16.29C9.6167 16.1968 9.50601 16.1228 9.38419 16.0723C9.26237 16.0219 9.1318 15.9959 8.99994 15.9959C8.86808 15.9959 8.73751 16.0219 8.61569 16.0723C8.49387 16.1228 8.38318 16.1968 8.28994 16.29C8.1967 16.3832 8.12274 16.4939 8.07228 16.6158C8.02182 16.7376 7.99585 16.8681 7.99585 17C7.99585 17.1319 8.02182 17.2624 8.07228 17.3842C8.12274 17.5061 8.1967 17.6168 8.28994 17.71L11.2899 20.71C11.3834 20.8027 11.4942 20.876 11.616 20.9258C11.7379 20.9755 11.8683 21.0008 11.9999 21C12.2574 20.999 12.5046 20.8987 12.6899 20.72L15.6899 17.82C15.7961 17.7324 15.883 17.6239 15.9452 17.5013C16.0075 17.3786 16.0438 17.2444 16.0518 17.107C16.0598 16.9697 16.0394 16.8322 15.9919 16.7031C15.9443 16.574 15.8707 16.4561 15.7755 16.3568C15.6803 16.2575 15.5656 16.1788 15.4387 16.1259C15.3117 16.0729 15.1752 16.0466 15.0376 16.0488C14.9001 16.051 14.7645 16.0815 14.6393 16.1385C14.514 16.1955 14.4019 16.2777 14.3099 16.38Z" fill="white"/>
<path d="M21.9 11.0001C21.9 10.8901 21.84 10.7801 21.81 10.6701C21.7637 10.4761 21.7036 10.2856 21.63 10.1001C21.58 9.98012 21.51 9.86012 21.45 9.73012C21.39 9.60012 21.3 9.43012 21.21 9.29012C21.12 9.15012 21 9.08012 21 9.00012C21 8.92012 20.8 8.75012 20.69 8.63012C20.58 8.51012 20.48 8.43012 20.37 8.33012L20 8.00012L19.64 7.76012C19.4987 7.67363 19.3517 7.59679 19.2 7.53012L18.81 7.35012C18.6467 7.28962 18.4797 7.23952 18.31 7.20012C18.1756 7.16058 18.0386 7.13051 17.9 7.11012H17.72C17.3348 5.90938 16.5811 4.86052 15.5659 4.1125C14.5507 3.36448 13.3257 2.95533 12.0647 2.94315C10.8038 2.93097 9.57103 3.31639 8.54158 4.04466C7.51213 4.77293 6.73831 5.80704 6.33 7.00012H6.15C6.0114 7.02051 5.8744 7.05058 5.74 7.09012C5.57034 7.12952 5.40334 7.17962 5.24 7.24012L4.85 7.42012C4.69832 7.48679 4.55132 7.56363 4.41 7.65012L4.05 8.00012L3.68 8.31012C3.57 8.41012 3.46 8.50012 3.36 8.61012C3.26 8.72012 3.15 8.86012 3.05 8.98012C2.95 9.10012 2.87 9.21012 2.79 9.34012C2.71 9.47012 2.63 9.63012 2.55 9.78012C2.47 9.93012 2.42 10.0301 2.37 10.1501C2.29644 10.3356 2.23629 10.5261 2.19 10.7201C2.19 10.8301 2.12 10.9401 2.1 11.0501C2.03776 11.3631 2.00428 11.6811 2 12.0001C2.00469 12.3054 2.03479 12.6098 2.09 12.9101C2.09 13.0101 2.14 13.1001 2.16 13.2001C2.20943 13.3966 2.26952 13.5902 2.34 13.7801L2.46 14.0701C2.54803 14.263 2.64823 14.45 2.76 14.6301L2.9 14.8501C2.91439 14.8781 2.93111 14.9049 2.95 14.9301L3 15.0001C3.46574 15.6211 4.06965 16.1251 4.76393 16.4723C5.45821 16.8194 6.22377 17.0001 7 17.0001C7.00223 16.4705 7.21441 15.9635 7.59 15.5901C7.96335 15.2145 8.47042 15.0023 9 15.0001C9.35177 14.9968 9.6977 15.0902 10 15.2701V12.0001C10 11.4697 10.2107 10.961 10.5858 10.5859C10.9609 10.2108 11.4696 10.0001 12 10.0001C12.5304 10.0001 13.0391 10.2108 13.4142 10.5859C13.7893 10.961 14 11.4697 14 12.0001V15.3701C14.3038 15.1939 14.6487 15.1007 15 15.1001C15.5417 15.1052 16.0595 15.3245 16.44 15.7101C16.7767 16.0581 16.9757 16.5165 17 17.0001C17.7762 17.0001 18.5418 16.8194 19.2361 16.4723C19.9303 16.1251 20.5343 15.6211 21 15.0001L21.05 14.9501C21.0689 14.9249 21.0856 14.8981 21.1 14.8701L21.24 14.6501C21.3518 14.47 21.452 14.283 21.54 14.0901L21.66 13.8001C21.7305 13.6102 21.7906 13.4166 21.84 13.2201C21.84 13.1201 21.89 13.0301 21.91 12.9301C21.9663 12.6232 21.9964 12.3121 22 12.0001C21.9988 11.6643 21.9654 11.3295 21.9 11.0001Z" fill="white"/>
<path d="M14.3099 16.38L12.9999 17.64V12C12.9999 11.7348 12.8946 11.4804 12.707 11.2929C12.5195 11.1054 12.2652 11 11.9999 11C11.7347 11 11.4804 11.1054 11.2928 11.2929C11.1053 11.4804 10.9999 11.7348 10.9999 12V17.59L9.70994 16.29C9.6167 16.1968 9.50601 16.1228 9.38419 16.0723C9.26237 16.0219 9.1318 15.9959 8.99994 15.9959C8.86808 15.9959 8.73751 16.0219 8.61569 16.0723C8.49387 16.1228 8.38318 16.1968 8.28994 16.29C8.1967 16.3832 8.12274 16.4939 8.07228 16.6158C8.02182 16.7376 7.99585 16.8681 7.99585 17C7.99585 17.1319 8.02182 17.2624 8.07228 17.3842C8.12274 17.5061 8.1967 17.6168 8.28994 17.71L11.2899 20.71C11.3834 20.8027 11.4942 20.876 11.616 20.9258C11.7379 20.9755 11.8683 21.0008 11.9999 21C12.2574 20.999 12.5046 20.8987 12.6899 20.72L15.6899 17.82C15.7961 17.7324 15.883 17.6239 15.9452 17.5013C16.0075 17.3786 16.0438 17.2444 16.0518 17.107C16.0598 16.9697 16.0394 16.8322 15.9919 16.7031C15.9443 16.574 15.8707 16.4561 15.7755 16.3568C15.6803 16.2575 15.5656 16.1788 15.4387 16.1259C15.3117 16.0729 15.1752 16.0466 15.0376 16.0488C14.9001 16.051 14.7645 16.0815 14.6393 16.1385C14.514 16.1955 14.4019 16.2777 14.3099 16.38Z" fill="white"/>
</svg>
