<svg width="21" height="21" viewBox="0 0 21 21" fill="none" xmlns="http://www.w3.org/2000/svg">
<path d="M20.3409 18.7891L17.5 15.9658V5.1041L16.1584 2.6366C16.0594 2.44847 15.9109 2.29096 15.7289 2.18108C15.547 2.0712 15.3384 2.01312 15.1259 2.01312C14.9133 2.01312 14.7048 2.0712 14.5228 2.18108C14.3408 2.29096 14.1923 2.44847 14.0934 2.6366L12.8334 5.10993V11.3224L2.1642 0.705762C2.08261 0.623495 1.97836 0.56739 1.86476 0.544599C1.75116 0.521809 1.63334 0.533365 1.52633 0.577796C1.41932 0.622227 1.32797 0.697518 1.26392 0.794071C1.19987 0.890624 1.16602 1.00406 1.1667 1.11993V5.83326H2.43253V6.7666H1.1667V10.4999H2.43253V11.4333H1.1667V15.3124H2.43253V16.2458H1.1667V19.2033C1.1667 19.358 1.22816 19.5063 1.33755 19.6157C1.44695 19.7251 1.59532 19.7866 1.75003 19.7866H19.9267C20.0426 19.7873 20.156 19.7534 20.2526 19.6894C20.3491 19.6253 20.4244 19.534 20.4688 19.427C20.5133 19.32 20.5248 19.2021 20.502 19.0885C20.4792 18.9749 20.4231 18.8707 20.3409 18.7891ZM5.83336 15.1666V9.8816L11.1242 15.1666H5.83336ZM16.3334 16.3974H14V14.9799H16.3334V16.3974ZM16.3334 14.0641H14V5.39576L15.1317 3.1966L16.3334 5.4016V14.0641Z" fill="#2B3694"/>
</svg>
