<svg width="34" height="34" viewBox="0 0 34 34" fill="none" xmlns="http://www.w3.org/2000/svg">
<path fill-rule="evenodd" clip-rule="evenodd" d="M1.41669 4.02046C1.41669 3.32988 1.69102 2.66759 2.17933 2.17927C2.66765 1.69096 3.32994 1.41663 4.02052 1.41663H29.9767C30.3189 1.41607 30.6579 1.48302 30.9742 1.61364C31.2905 1.74426 31.578 1.93599 31.8201 2.17786C32.0623 2.41972 32.2543 2.70696 32.3853 3.02314C32.5162 3.33932 32.5835 3.67823 32.5834 4.02046V29.9766C32.5837 30.3189 32.5166 30.6579 32.3858 30.9743C32.2551 31.2906 32.0632 31.578 31.8212 31.8202C31.5792 32.0623 31.2919 32.2543 30.9756 32.3852C30.6594 32.5162 30.3204 32.5835 29.9781 32.5833H4.02052C3.67846 32.5833 3.33975 32.5159 3.02375 32.385C2.70775 32.254 2.42064 32.0621 2.17883 31.8202C1.93702 31.5782 1.74526 31.291 1.61449 30.9749C1.48371 30.6589 1.4165 30.3201 1.41669 29.978V4.02046ZM13.753 13.2996H17.9733V15.419C18.5824 14.2006 20.1408 13.1041 22.4825 13.1041C26.9719 13.1041 28.0359 15.5309 28.0359 19.9835V28.2313H23.4926V20.9978C23.4926 18.462 22.8834 17.0311 21.3364 17.0311C19.1902 17.0311 18.2977 18.5739 18.2977 20.9978V28.2313H13.753V13.2996ZM5.96135 28.0372H10.506V13.1041H5.96135V28.0358V28.0372ZM11.1563 8.23363C11.1648 8.62275 11.0956 9.00966 10.9526 9.37166C10.8096 9.73366 10.5958 10.0634 10.3236 10.3417C10.0514 10.6199 9.72643 10.841 9.36767 10.9919C9.0089 11.1428 8.62361 11.2206 8.2344 11.2206C7.84518 11.2206 7.45989 11.1428 7.10113 10.9919C6.74237 10.841 6.41736 10.6199 6.14519 10.3417C5.87302 10.0634 5.65917 9.73366 5.51618 9.37166C5.37319 9.00966 5.30395 8.62275 5.31252 8.23363C5.32934 7.46984 5.64457 6.743 6.19069 6.20877C6.73682 5.67454 7.47042 5.37539 8.2344 5.37539C8.99837 5.37539 9.73197 5.67454 10.2781 6.20877C10.8242 6.743 11.1395 7.46984 11.1563 8.23363Z" fill="#2B3694"/>
</svg>
